# xmcd
#
# Track frame offsets: 
#        150
#        24387
#        48767
#        67230
#        86757
#        102150
#        124037
#        141995
#        149105
#
# Disc length: 2482 seconds
#
# Revision: 2
# Processed by: cddbd v1.5.2PL0 Copyright (c) Steve Scherf et al.
# Submitted via: ExactAudioCopyFreeDBPlugin 1.0
#
DISCID=8509b009
DTITLE=Omni - All For The One
DYEAR=1982
DGENRE=Funk
TTITLE0=Warriors
TTITLE1=Leave It Up To Me (The One You Can Turn To)
TTITLE2=All For The One
TTITLE3=Just How Bad
TTITLE4=Body Groove
TTITLE5=Out Of My Hand (Love's Taken Over)
TTITLE6=Only The Beginning
TTITLE7=Leave It To The Lord
TTITLE8=Body Groove (Remix)
EXTD=
EXTT0=
EXTT1=
EXTT2=
EXTT3=
EXTT4=
EXTT5=
EXTT6=
EXTT7=
EXTT8=
PLAYORDER=
